<svg data-name="Layer 1" xmlns="http://www.w3.org/2000/svg"  viewBox="0 0 582 96" preserveAspectRatio="none" height="34px">
<title>upliftHeaderLogo</title>

 <defs>
    <style>
      .b {
        fill: #231f20;
      }

      .c {
        fill: #00a7e1;
      }
    </style>
  </defs>
  <g>
    <path class="b" d="M60.24,2.68h-4.65v42.5c0,4.72-.54,8.88-1.62,12.35-1.06,3.42-2.59,6.31-4.54,8.61-1.93,2.26-4.29,3.98-7.01,5.09-2.46,1.01-5.29,1.57-8.42,1.67-3.14-.1-6-.68-8.49-1.71-2.76-1.15-5.16-2.9-7.12-5.2-1.99-2.33-3.54-5.26-4.63-8.71-1.11-3.5-1.67-7.63-1.67-12.29V2.68H3v42.5c0,5.5.7,10.39,2.09,14.54,1.4,4.19,3.38,7.74,5.9,10.56,2.53,2.83,5.61,5,9.15,6.46,3.91,1.6,9.18,2.17,12.81,2.17.12,0,.23,0,.33,0,.14,0,.27,0,.41,0,.04,0,.09,0,.14,0,.05,0,.1,0,.14,0,.15,0,.32,0,.48,0,.13,0,.26,0,.38,0,4.19,0,8.1-.73,11.62-2.17,3.55-1.45,6.63-3.64,9.16-6.51,2.52-2.85,4.48-6.45,5.85-10.72,1.35-4.21,2.04-9.14,2.04-14.63V2.68h-3.26Z"/>
    <path class="b" d="M116.73,8.79c-2.31-1.97-5.17-3.5-8.51-4.56-3.3-1.04-7.01-1.56-11.03-1.56h-27.28v75.09h9.03v-27.79h17.49c3.96,0,7.65-.51,10.97-1.5,3.36-1.01,6.32-2.56,8.79-4.6,2.49-2.05,4.44-4.57,5.8-7.51,1.36-2.93,2.05-6.35,2.05-10.19v-.21c0-3.62-.64-6.91-1.89-9.8-1.26-2.9-3.09-5.38-5.41-7.37ZM78.93,8.65h16.09c6.62,0,11.87,1.55,15.6,4.61,3.7,3.03,5.5,7.24,5.5,12.86v.21c0,5.69-1.86,9.94-5.68,13.01-3.86,3.1-9.17,4.67-15.8,4.67h-15.71V8.65Z"/>
    <polygon class="b" points="175.72 71.79 139.53 71.79 139.53 4.06 139.53 2.68 138.15 2.68 135.17 2.68 133.79 2.68 131.91 2.68 130.52 2.68 130.52 4.06 130.52 76.38 130.52 77.76 131.91 77.76 133.79 77.76 175.72 77.76 177.6 77.76 178.98 77.76 178.98 76.38 178.98 73.18 178.98 71.79 177.6 71.79 175.72 71.79"/>
    <polygon class="b" points="191.51 2.68 189.76 2.68 187.4 2.68 186.01 2.68 186.01 4.06 186.01 76.38 186.01 77.76 187.4 77.76 189.76 77.76 191.51 77.76 193.87 77.76 195.26 77.76 195.26 76.38 195.26 4.06 195.26 2.68 193.87 2.68 191.51 2.68"/>
    <polygon class="b" points="253.48 2.68 208.47 2.68 206.59 2.68 205.21 2.68 205.21 4.06 205.21 76.38 205.21 77.76 206.59 77.76 208.47 77.76 209.86 77.76 212.71 77.76 214.09 77.76 214.09 76.38 214.09 43.88 249.26 43.88 251.13 43.88 252.52 43.88 252.52 42.49 252.52 39.29 252.52 37.91 251.13 37.91 249.26 37.91 214.09 37.91 214.09 8.65 253.48 8.65 255.36 8.65 256.75 8.65 256.75 7.26 256.75 4.06 256.75 2.68 255.36 2.68 253.48 2.68"/>
    <polygon class="b" points="314.63 2.68 265.3 2.68 263.42 2.68 262.04 2.68 262.04 4.06 262.04 7.26 262.04 8.65 263.42 8.65 265.3 8.65 285.65 8.65 285.65 76.38 285.65 77.76 287.04 77.76 289.22 77.76 290.61 77.76 293.03 77.76 294.41 77.76 294.41 76.38 294.41 8.65 314.63 8.65 316.51 8.65 317.89 8.65 317.89 7.26 317.89 4.06 317.89 2.68 316.51 2.68 314.63 2.68"/>
    <path class="b" d="M389.28,29.56c-3.29-3.35-7.25-6.03-11.79-7.95-4.54-1.92-9.59-2.9-15-2.9h-26.41v75.09h26.41c5.42,0,10.47-.97,15-2.9,4.54-1.93,8.51-4.6,11.79-7.95,3.28-3.35,5.86-7.35,7.65-11.88,1.79-4.52,2.69-9.47,2.69-14.71v-.21c0-5.24-.91-10.19-2.69-14.71-1.79-4.53-4.37-8.52-7.65-11.87ZM391.71,56.25v.21c0,4.36-.75,8.5-2.22,12.31-1.46,3.8-3.58,7.15-6.3,9.97-2.71,2.81-6.01,5.05-9.79,6.66-3.79,1.61-8.04,2.42-12.65,2.42h-15.51V24.67h15.41c4.66,0,8.95.83,12.74,2.47,3.79,1.64,7.07,3.9,9.75,6.71,2.69,2.82,4.81,6.2,6.31,10.03,1.5,3.85,2.27,8.01,2.27,12.36Z"/>
    <polygon class="b" points="453.7 87.82 413.33 87.82 413.33 58.97 448.99 58.97 450.87 58.97 452.26 58.97 452.26 57.59 452.26 54.39 452.26 53.01 450.87 53.01 448.99 53.01 413.33 53.01 413.33 24.67 453.22 24.67 455.1 24.67 456.48 24.67 456.48 23.29 456.48 20.09 456.48 18.71 455.1 18.71 453.22 18.71 407.73 18.71 405.85 18.71 404.47 18.71 404.47 20.09 404.47 92.41 404.47 93.79 405.85 93.79 407.73 93.79 453.7 93.79 455.58 93.79 456.96 93.79 456.96 92.41 456.96 89.2 456.96 87.82 455.58 87.82 453.7 87.82"/>
    <path class="b" d="M508.21,60.58c-1.9-1.68-4.41-3.17-7.45-4.43-2.98-1.23-6.63-2.32-10.86-3.22-4.16-.91-6.86-1.92-9.28-2.88-2.54-1.01-4.56-2.15-6-3.38-1.39-1.19-2.37-2.51-2.92-3.94-.58-1.49-.87-3.2-.87-5.08v-.21c0-1.78.39-3.51,1.16-5.14.78-1.65,1.91-3.13,3.36-4.41l.08-.07c1.52-1.34,2.61-2.3,4.6-3.03,1.8-.65,3.84-1.03,6.07-1.12,5.14.14,9.98,1.55,14.4,4.18.3.19.59.37.87.56.25.16.48.32.71.47,1.44,1,2.89,2.13,4.41,3.44l1.13.97.88-1.2,2.76-3.76.77-1.05-.99-.83c-3.3-2.77-6.91-4.95-10.75-6.48-3.86-1.54-8.24-2.32-13-2.32-.23,0-.46.01-.68.02-.1,0-.19.01-.29.01-.1,0-.2,0-.3-.02-.2-.01-.4-.02-.6-.02-3.35,0-6.46.51-9.26,1.53-2.81,1.02-5.28,2.47-7.32,4.3-2.05,1.84-3.68,4-4.84,6.43-1.17,2.45-1.77,5.08-1.77,7.83v.21c0,2.78.45,5.31,1.35,7.5.91,2.23,2.39,4.22,4.37,5.9,1.93,1.64,4.45,3.09,7.49,4.31,2.98,1.2,6.6,2.26,10.74,3.17,3.39.75,5.35,1.54,7.62,2.46.34.14.69.28,1.05.42,2.54,1.01,4.56,2.13,6.01,3.34,1.38,1.15,2.36,2.46,2.91,3.88.58,1.49.87,3.23.87,5.18v.21c0,2.06-.41,3.98-1.22,5.72-.81,1.74-2,3.28-3.54,4.59-1.56,1.33-3.45,2.37-5.64,3.1l-.11.04c-1.97.66-2.87.96-5.06,1.04-4.44-.1-8.49-.97-12.02-2.58-3.67-1.67-8.41-5.17-12.07-8.89l-1.08-1.1-.98,1.2-.88,1.08-2.09,2.44-.84.98.92.91c3.94,3.88,8.23,6.88,12.75,8.9,4.55,2.03,9.6,3.07,15.03,3.07.25,0,.48-.01.72-.02.12,0,.23-.01.35-.02.09,0,.17,0,.26.02.18.01.36.02.55.02,3.59,0,6.9-.51,9.82-1.52,2.95-1.02,5.5-2.49,7.58-4.36,2.08-1.87,3.73-4.09,4.89-6.59,1.17-2.52,1.77-5.32,1.77-8.33v-.21c0-2.7-.44-5.17-1.3-7.33-.88-2.19-2.31-4.17-4.26-5.9Z"/>
    <polygon class="b" points="578.37 91.58 548.6 51.29 577.11 21.04 579.31 18.71 576.11 18.71 574.23 18.71 571.59 18.71 569.71 18.71 569.11 18.71 568.7 19.15 527.91 62.91 527.91 20.09 527.91 18.71 526.53 18.71 524.65 18.71 523.26 18.71 520.11 18.71 518.73 18.71 518.73 20.09 518.73 92.41 518.73 93.79 520.11 93.79 523.26 93.79 524.65 93.79 526.53 93.79 527.91 93.79 527.91 92.41 527.91 73.2 541.92 57.43 568.16 93.22 568.57 93.79 569.27 93.79 573.03 93.79 575.38 93.79 577.26 93.79 580 93.79 578.37 91.58"/>
  </g>
  <rect class="c" x="3.53" y="87.6" width="311" height="6"/>

</svg>
